# xmcd
#
# Track frame offsets:
# 150
# 1539
# 16459
# 29269
# 59470
# 61949
# 89612
# 110408
#
# Disc length: 1702 seconds
#
#
# Revision: 1
# Processed by: cddbd v1.5.2PL0 Copyright (c) Steve Scherf et al.
# Submitted via: FreeRIP 2.96 
#
DISCID=5a06a408
DTITLE=Dirtwater Bloom [AUS] - Dirtwater Bloom EP
DYEAR=2015
DGENRE=Blues
TTITLE0=Sun Go Up [from 'Dirtwater Bloom' EP, Jul 2015] [MLVox]
TTITLE1=Red Gun [from 'Dirtwater Bloom' EP, Jul 2015] [MLVox]
TTITLE2=When She Comes [from 'Dirtwater Bloom' EP, Jul 2015] [MLVox]
TTITLE3=Crying Bride [from 'Dirtwater Bloom' EP, Jul 2015] [MLVox]
TTITLE4=M-16 [from 'Dirtwater Bloom' EP, Jul 2015] [MLVox]
TTITLE5=My Deliverance [from 'Dirtwater Bloom' EP, Jul 2015] [MLVox]
TTITLE6=Den Buster [from 'Dirtwater Bloom' EP, Jul 2015] [MLVox]
TTITLE7=Dark Pony [from 'Dirtwater Bloom' EP, Jul 2015] [MLVox]
EXTD=Australian band formed in Perth, Western Australia
EXTT0=
EXTT1=
EXTT2=
EXTT3=
EXTT4=
EXTT5=
EXTT6=
EXTT7=
PLAYORDER=
